<svg xmlns="http://www.w3.org/2000/svg" width="1000" height="1000" fill="none"><path fill="#000" fill-rule="evenodd" d="M0 31.25A31.25 31.25 0 0 1 31.25 0h250a31.249 31.249 0 1 1 0 62.5h-250A31.25 31.25 0 0 1 0 31.25Zm0 125A31.249 31.249 0 0 1 31.25 125h437.5A31.247 31.247 0 0 1 500 156.25a31.247 31.247 0 0 1-31.25 31.25H31.25A31.248 31.248 0 0 1 0 156.25Zm562.5 0A31.247 31.247 0 0 1 593.75 125h312.5a31.247 31.247 0 0 1 31.25 31.25 31.247 31.247 0 0 1-31.25 31.25h-312.5a31.247 31.247 0 0 1-31.25-31.25ZM0 281.25A31.249 31.249 0 0 1 31.25 250h187.5A31.247 31.247 0 0 1 250 281.25a31.247 31.247 0 0 1-31.25 31.25H31.25A31.248 31.248 0 0 1 0 281.25Zm312.5 0A31.247 31.247 0 0 1 343.75 250h312.5a31.247 31.247 0 0 1 31.25 31.25 31.247 31.247 0 0 1-31.25 31.25h-312.5a31.247 31.247 0 0 1-31.25-31.25Zm437.5 0A31.247 31.247 0 0 1 781.25 250h187.5a31.247 31.247 0 0 1 31.25 31.25 31.247 31.247 0 0 1-31.25 31.25h-187.5A31.247 31.247 0 0 1 750 281.25Zm-750 125A31.249 31.249 0 0 1 31.25 375h375a31.247 31.247 0 0 1 31.25 31.25 31.247 31.247 0 0 1-31.25 31.25h-375A31.248 31.248 0 0 1 0 406.25Zm500 0A31.247 31.247 0 0 1 531.25 375h312.5A31.247 31.247 0 0 1 875 406.25a31.247 31.247 0 0 1-31.25 31.25h-312.5A31.247 31.247 0 0 1 500 406.25Zm-500 125A31.249 31.249 0 0 1 31.25 500h312.5A31.247 31.247 0 0 1 375 531.25a31.247 31.247 0 0 1-31.25 31.25H31.25A31.248 31.248 0 0 1 0 531.25Zm437.5 0A31.247 31.247 0 0 1 468.75 500h437.5a31.247 31.247 0 0 1 31.25 31.25 31.247 31.247 0 0 1-31.25 31.25h-437.5a31.247 31.247 0 0 1-31.25-31.25ZM0 656.25A31.249 31.249 0 0 1 31.25 625h500a31.247 31.247 0 0 1 31.25 31.25 31.247 31.247 0 0 1-31.25 31.25h-500A31.248 31.248 0 0 1 0 656.25Zm0 125A31.249 31.249 0 0 1 31.25 750h250a31.247 31.247 0 0 1 31.25 31.25 31.247 31.247 0 0 1-31.25 31.25h-250A31.248 31.248 0 0 1 0 781.25Zm0 125A31.249 31.249 0 0 1 31.25 875h125a31.247 31.247 0 0 1 31.25 31.25 31.247 31.247 0 0 1-31.25 31.25h-125A31.248 31.248 0 0 1 0 906.25Z" clip-rule="evenodd"/></svg>